<svg id="Layer_1" data-name="Layer 1" xmlns="http://www.w3.org/2000/svg" width="79" height="76.01" viewBox="0 0 79 76.01">
  <title>development</title>
  <path id="development.svg" d="M76.92,76H2.08A2.09,2.09,0,0,1,0,73.9H0V13a2.09,2.09,0,0,1,2.08-2.1H76.92A2.1,2.1,0,0,1,79,13V73.9A2.1,2.1,0,0,1,76.92,76ZM4.16,71.8H74.84V15.08H4.16ZM76.92,15.08H2.08A2.09,2.09,0,0,1,0,13H0V2.09A2.09,2.09,0,0,1,2.08,0H76.92A2.1,2.1,0,0,1,79,2.09V13A2.1,2.1,0,0,1,76.92,15.08ZM4.16,10.88H74.84V4.19H4.16Zm5-4.81A1.47,1.47,0,1,1,7.73,7.55h0A1.45,1.45,0,0,1,9.18,6.07Zm4.35,0A1.46,1.46,0,0,1,15,7.52,1.48,1.48,0,0,1,13.55,9a1.46,1.46,0,0,1-1.47-1.45h0A1.46,1.46,0,0,1,13.53,6.07Zm4.35,0a1.47,1.47,0,1,1-1.45,1.49v0A1.45,1.45,0,0,1,17.88,6.07ZM29,49.18a1.78,1.78,0,0,1-1.28-.54L22.1,42.93a1.85,1.85,0,0,1,0-2.6l5.65-5.71a1.82,1.82,0,0,1,2.57,0,1.85,1.85,0,0,1,0,2.6L26,41.63,30.33,46a1.85,1.85,0,0,1,0,2.6,1.78,1.78,0,0,1-1.29.54Zm20.92,0a1.76,1.76,0,0,1-1.28-.54,1.83,1.83,0,0,1,0-2.6L53,41.64l-4.37-4.42a1.85,1.85,0,0,1,0-2.6,1.82,1.82,0,0,1,2.57,0l5.66,5.72a1.84,1.84,0,0,1,0,2.59l-5.65,5.71a1.78,1.78,0,0,1-1.29.54ZM36.89,53.42a1.74,1.74,0,0,1-.45-.06,1.83,1.83,0,0,1-1.31-2.23l4.62-18.28A1.81,1.81,0,0,1,42,31.52h0a1.85,1.85,0,0,1,1.32,2.24L38.65,52a1.81,1.81,0,0,1-1.76,1.38Z" transform="translate(0 0.01)" fill="#3c3c3c"/>
</svg>
